<svg xmlns="http://www.w3.org/2000/svg" viewBox="0 0 64 64"><defs><style>.cls-1,.cls-2,.cls-4{fill:none;}.cls-1{stroke:#73a8d4;}.cls-1,.cls-2{stroke-miterlimit:10;}.cls-2,.cls-4{stroke:#1c3144;}.cls-3{fill:#ffd978;}.cls-4{stroke-linecap:round;stroke-linejoin:round;}</style></defs><title>career</title><g id="Layer_6" data-name="Layer 6"><line class="cls-1" x1="33.02" y1="58.24" x2="33.02" y2="5.25"/><line class="cls-2" x1="31.86" y1="58.75" x2="31.86" y2="5.76"/><line class="cls-2" x1="23.26" y1="58.69" x2="40.45" y2="58.69"/><path class="cls-3" d="M10.18,39.86a.51.51,0,0,0,.36.15H29.31a.51.51,0,0,0,.51-.51V34.79a.51.51,0,0,0-.51-.51H10.54a.51.51,0,0,0-.36.15L7.82,36.79a.51.51,0,0,0,0,.72Z"/><polygon class="cls-4" points="12.37 38.05 17.72 38.05 31.86 38.05 31.86 32.32 12.37 32.32 9.5 35.19 12.37 38.05"/><path class="cls-3" d="M53.82,21a.51.51,0,0,1-.36.15H34.69a.51.51,0,0,1-.51-.51V15.89a.51.51,0,0,1,.51-.51H53.46a.51.51,0,0,1,.36.15l2.36,2.35a.51.51,0,0,1,0,.72Z"/><polygon class="cls-4" points="51.63 23.15 46.28 23.15 32.14 23.15 32.14 17.41 51.63 17.41 54.5 20.28 51.63 23.15"/></g></svg>