<svg xmlns="http://www.w3.org/2000/svg" viewBox="0 0 64 64"><defs><style>.cls-1{fill:#ffd978;}.cls-2{fill:#73a8d4;}.cls-3{fill:none;stroke:#1c3144;stroke-linejoin:round;}</style></defs><title>skills</title><g id="Layer_9" data-name="Layer 9"><path class="cls-1" d="M58.48,12.13l-2.4,2.4a.57.57,0,0,1-.35.16c-3.21.14-4.06-2.89-2.53-4.42l1.71-1.71a.5.5,0,0,0-.24-.84,6.27,6.27,0,0,0-7.59,7.55.48.48,0,0,1-.12.46L16.73,46a.48.48,0,0,1-.46.12,6.28,6.28,0,0,0-7.56,7.59.51.51,0,0,0,.85.24l2.4-2.4a.51.51,0,0,1,.35-.15c3.21-.15,4.06,2.88,2.53,4.41l-1.71,1.71a.51.51,0,0,0,.24.85A6.28,6.28,0,0,0,21,50.77a.48.48,0,0,1,.12-.46L51.31,20.08a.48.48,0,0,1,.46-.12,6.27,6.27,0,0,0,7.55-7.59A.5.5,0,0,0,58.48,12.13Z"/><path class="cls-2" d="M12.43,6.06a2.48,2.48,0,0,0-3.51,0l-.84.84a2.48,2.48,0,0,0,0,3.51L27.21,29.55l4.35-4.36Z"/><path class="cls-2" d="M53.83,48.55l-3.75-2.27-19.8-19.8L28.5,28.26,48.33,48.09l2.24,3.73,4,2.61a.5.5,0,0,0,.63-.07l1.21-1.21a.49.49,0,0,0,.06-.62Z"/><path class="cls-3" d="M57,10.52l-2.3,2.3a2.52,2.52,0,1,1-3.57-3.56L53.46,7a6.28,6.28,0,0,0-8.35,7.56L14.5,45.13a6.28,6.28,0,0,0-7.57,8.35l2.3-2.3a2.52,2.52,0,0,1,3.57,3.57l-2.3,2.3a6.28,6.28,0,0,0,8.35-7.57L49.46,18.87A6.28,6.28,0,0,0,57,10.52Z"/><path class="cls-3" d="M12.43,8.1a2.48,2.48,0,0,0-3.51,0l-.84.84a2.48,2.48,0,0,0,0,3.51L27.21,31.58l4.35-4.35Z"/><path class="cls-3" d="M53.74,50.53l-3.66-2.21-19.8-19.8L28.5,30.3,48.33,50.13l2.24,3.72,4.31,2.84,1.5-1.5a.5.5,0,0,0,.06-.63L53.9,50.69A.49.49,0,0,0,53.74,50.53Z"/></g></svg>